<?xml version="1.0" standalone="no"?>
<!DOCTYPE svg PUBLIC "-//W3C//DTD SVG 20010904//EN"
 "http://www.w3.org/TR/2001/REC-SVG-20010904/DTD/svg10.dtd">
<svg version="1.0" xmlns="http://www.w3.org/2000/svg"
 width="640.000000pt" height="360.000000pt" viewBox="0 0 640.000000 360.000000"
 preserveAspectRatio="xMidYMid meet">

<g transform="translate(0.000000,360.000000) scale(0.100000,-0.100000)"
fill="#000000" stroke="none">
<path d="M6291 3214 c-41 -19 -81 -32 -89 -29 -7 2 -11 1 -8 -4 5 -8 -214
-115 -221 -108 -2 2 44 26 103 53 87 40 103 50 90 60 -9 6 -12 14 -8 18 4 4
-38 -13 -93 -39 -55 -26 -125 -59 -155 -73 l-55 -26 -1615 0 c-888 -1 -1779 1
-1980 4 l-364 5 -12 23 c-8 17 -13 20 -17 10 -4 -9 -6 -7 -6 4 -1 10 -4 17 -8
16 -11 -2 -46 13 -63 28 -8 7 -18 13 -22 13 -5 1 -9 1 -10 2 -43 13 -166 15
-213 4 -40 -10 -76 -9 -84 2 -11 15 -212 21 -276 8 -61 -12 -114 -7 -272 24
-24 5 -43 5 -43 1 0 -4 -12 -11 -26 -14 -36 -9 -49 -25 -52 -66 l-3 -35 174
-92 c150 -80 178 -92 208 -87 36 6 50 -3 74 -48 5 -11 36 -34 68 -51 53 -28
62 -30 98 -20 37 10 41 9 60 -18 28 -40 40 -128 34 -253 -2 -63 0 -108 5 -111
13 -8 13 -45 1 -45 -5 0 -12 8 -14 18 -3 9 -4 -37 -4 -103 1 -99 2 -104 4 -32
5 132 20 104 18 -35 0 -71 4 -129 10 -137 7 -11 7 -13 -2 -7 -8 4 -13 1 -13
-9 0 -9 5 -13 10 -10 6 3 10 1 10 -4 0 -6 -7 -11 -15 -11 -11 0 -15 13 -17 53
l-1 52 -7 -55 c-4 -32 -8 64 -10 225 l-3 280 -9 -255 c-5 -140 -11 -256 -13
-259 -10 -9 -14 6 -16 64 -3 86 -12 111 -20 55 -4 -31 -7 -10 -8 65 -1 75 -4
105 -11 95 -5 -8 -10 -37 -11 -65 -1 -27 -6 2 -10 65 -11 157 -25 241 -44 259
-10 10 -15 11 -15 3 0 -7 -9 -3 -20 8 -12 12 -25 18 -30 15 -6 -4 -10 0 -10 7
0 9 -3 9 -10 -2 -5 -8 -10 -40 -10 -70 0 -39 -3 -51 -10 -40 -7 10 -10 -27
-11 -115 -1 -71 -4 -116 -8 -100 l-7 30 -7 -33 c-4 -18 -7 -120 -7 -227 -1
-107 -5 -197 -9 -200 -5 -2 -6 -17 -3 -32 3 -22 2 -25 -8 -17 -6 7 -12 29 -12
49 0 23 -3 33 -8 25 -11 -18 -32 52 -25 83 4 14 2 28 -4 32 -6 3 -9 11 -6 16
4 5 2 9 -3 9 -17 0 -20 -12 -11 -43 6 -20 5 -33 -2 -37 -5 -4 -9 -11 -8 -16 1
-5 1 -17 0 -26 -2 -29 -16 -21 -17 10 -2 57 -8 90 -17 85 -4 -3 -6 -11 -3 -19
7 -17 -10 -19 -18 -1 -3 6 -3 -3 0 -20 6 -38 -3 -76 -17 -68 -5 4 -9 22 -9 42
0 31 -2 34 -15 23 -21 -17 -22 -14 -29 55 -4 48 -3 56 6 38 12 -25 24 -30 27
-10 2 15 3 139 0 187 l-1 35 -13 -45 -12 -45 -7 50 c-10 68 -14 76 -16 35 -2
-35 -4 -46 -10 -65 -2 -5 -6 62 -10 150 -4 98 -2 170 4 185 l10 25 4 -27 c6
-45 22 -32 23 20 1 26 3 39 6 30 4 -17 24 -26 22 -10 -4 25 4 52 21 72 11 13
20 27 20 31 0 4 9 11 20 14 11 3 20 12 20 18 0 14 63 67 79 67 6 0 11 3 11 8
0 11 -411 214 -419 207 -3 -4 -7 -93 -9 -198 -2 -109 -8 -197 -14 -204 -5 -7
-7 -17 -3 -22 3 -6 -1 -23 -9 -38 -15 -27 -15 -26 -17 47 -1 56 -3 66 -8 40
l-7 -35 -7 34 c-4 18 -7 79 -7 135 0 69 -3 96 -10 86 -8 -12 -10 -11 -10 8 0
12 -4 22 -10 22 -5 0 -10 -10 -11 -22 -1 -21 -2 -20 -14 7 -14 29 -14 29 -15
5 -1 -24 -1 -24 -15 5 l-13 30 -2 -30 c-2 -29 -2 -29 -15 10 l-13 40 -4 -40
-5 -40 -1 38 c-2 40 -21 43 -24 4 0 -12 -4 -2 -8 23 -7 42 -7 43 -9 10 -1 -23
-4 -30 -10 -22 -8 13 -20 -138 -22 -288 -2 -142 -17 -23 -20 165 l-2 180 -8
-130 c-3 -71 -8 -152 -9 -180 l-3 -50 -7 60 c-4 33 -9 121 -10 195 -2 92 -5
122 -10 95 l-7 -40 -3 50 -3 50 -7 -50 -7 -50 -3 65 c-3 65 -3 65 -10 20 -6
-36 -7 -39 -9 -15 l-2 30 -14 -30 -13 -30 -2 35 -2 35 -8 -30 c-6 -25 -8 -20
-10 30 l-3 60 -7 -60 -7 -60 -3 60 -4 60 -6 -80 -6 -80 -4 110 -4 110 -6 -105
-6 -105 -4 105 -4 105 -6 -125 -6 -125 -4 165 -4 165 -6 -150 -6 -150 -4 155
-4 155 -6 -180 -6 -180 -3 185 -4 185 -7 -235 c-12 -374 -20 -791 -21 -1113 0
-172 -5 -299 -10 -303 -6 -3 -9 34 -8 93 5 331 -3 1063 -12 1069 -6 3 -10 0
-8 -7 1 -8 0 -230 -1 -494 -2 -264 -5 -462 -8 -440 -3 32 -6 36 -12 20 -8 -19
-9 -19 -9 2 -1 12 -5 24 -10 27 -4 3 -7 -20 -5 -52 3 -50 6 -280 5 -323 -1
-22 -31 -34 -31 -13 0 9 5 12 12 8 7 -5 8 -3 3 6 -5 8 -10 36 -12 63 -1 27 -7
55 -12 61 -5 6 -9 71 -9 144 0 73 -3 136 -6 139 -3 4 -6 -419 -6 -938 0 -613
4 -939 10 -929 5 8 10 32 10 54 0 32 2 36 14 27 11 -9 14 -9 13 1 -2 50 4 68
22 68 11 0 22 8 24 18 3 9 5 -29 6 -85 2 -154 19 -134 21 25 2 171 3 183 13
173 4 -4 10 -58 14 -119 6 -109 13 -127 38 -103 6 5 27 16 47 25 33 13 38 13
38 0 0 -7 -8 -14 -17 -14 -15 0 -16 -2 -3 -10 10 -6 11 -10 3 -10 -7 0 -21 -7
-30 -16 -10 -8 -31 -26 -48 -40 l-30 -24 3128 0 3127 0 -1 443 c-1 243 -4 432
-6 419 -5 -27 -2 -28 -79 23 l-60 40 -8 745 c-3 410 -4 759 0 776 5 29 10 32
68 43 64 13 107 31 74 31 -17 0 -136 -26 -160 -35 -11 -4 -13 -123 -13 -630 1
-344 -2 -625 -5 -625 -4 0 -5 -14 -2 -30 4 -25 1 -30 -16 -30 -15 0 -20 -5
-17 -19 3 -15 -1 -18 -18 -14 -18 4 -19 3 -7 -6 8 -6 25 -11 36 -11 17 0 22
-8 27 -37 5 -43 1 -198 -6 -210 -2 -4 -2 -22 0 -40 4 -23 11 -33 31 -38 23 -6
112 -61 112 -69 0 -4 -352 112 -393 129 -15 6 -17 20 -16 94 2 77 4 87 20 87
12 0 19 -7 19 -19 0 -10 5 -15 10 -12 14 9 12 55 -2 56 -7 1 -21 1 -30 0 -10
-1 -18 4 -18 13 0 9 6 16 13 16 9 0 8 3 -2 9 -8 5 -12 20 -9 38 4 29 3 30 -61
46 -119 30 -120 30 -86 13 24 -11 26 -15 10 -15 -17 -1 -83 16 -288 71 -21 6
-41 17 -44 24 -3 8 -11 14 -19 14 -8 0 -14 10 -15 23 -6 210 -9 878 -4 925 5
47 10 62 22 62 9 0 14 2 11 5 -3 3 -53 -6 -112 -20 -59 -14 -110 -23 -114 -21
-4 2 -8 -75 -8 -172 -2 -224 -9 -400 -17 -409 -4 -3 -7 5 -8 18 0 22 -1 23 -9
4 -5 -13 -9 28 -9 109 -1 71 -4 127 -7 124 -3 -4 -6 -48 -6 -100 0 -51 -3
-112 -8 -135 -4 -23 -5 -45 -1 -48 6 -7 3 -70 -5 -98 -5 -17 -24 -14 -24 4 0
6 6 7 13 3 9 -6 8 -4 -1 8 -7 9 -14 30 -14 47 -1 39 -5 39 -17 -1 -9 -31 -9
-30 -10 20 -1 65 -18 61 -19 -4 -1 -26 -4 -49 -7 -52 -3 -3 -6 63 -6 146 -1
84 -3 157 -4 162 -1 6 -3 18 -4 27 -3 41 -11 -1 -15 -76 -9 -150 -16 -98 -16
111 0 273 -12 607 -20 583 -4 -11 -5 -25 -3 -32 3 -7 1 -18 -3 -25 -10 -15
-13 -42 -20 -150 -4 -57 -10 -88 -17 -88 -9 0 -12 -119 -12 -458 0 -251 -3
-469 -8 -484 l-7 -28 -391 0 c-233 0 -388 4 -385 9 4 5 2 11 -2 13 -10 3 -21
159 -23 308 0 63 -3 88 -9 75 -6 -15 -9 -5 -10 35 0 39 -3 50 -10 39 -5 -8
-10 -112 -11 -230 -1 -132 -6 -221 -13 -232 -10 -16 -40 -17 -394 -17 -396 0
-406 1 -410 40 -1 8 -5 94 -8 190 -3 96 -8 177 -11 180 -15 16 -23 -44 -23
-177 0 -116 -3 -153 -12 -153 -9 0 -8 -4 2 -10 13 -9 13 -11 0 -20 -10 -7 -11
-10 -2 -10 10 0 10 -4 0 -20 -16 -25 -65 -27 -72 -2 -2 9 -8 76 -11 147 -4 72
-12 136 -18 143 -6 8 -32 24 -58 37 l-46 24 5 69 c4 69 4 69 -28 92 -31 22
-35 23 -74 9 l-41 -14 0 -70 0 -70 -70 -35 c-66 -33 -70 -37 -81 -81 -6 -26
-23 -62 -37 -80 -20 -27 -25 -44 -23 -79 1 -25 6 -52 10 -62 5 -12 2 -18 -13
-23 -12 -3 -19 -11 -16 -16 4 -5 -32 -9 -87 -8 -62 1 -85 4 -68 9 25 8 24 8
-5 9 -78 3 -76 -1 -75 140 1 69 -1 187 -4 261 -4 74 -8 236 -11 359 -2 123 -7
226 -10 229 -20 21 -25 -66 -25 -499 l0 -477 -23 -6 c-12 -3 -33 -6 -47 -7
-23 0 -23 -1 -5 -9 13 -6 -14 -9 -78 -9 -63 -1 -96 3 -92 9 3 6 -5 10 -19 10
-35 0 -41 14 -42 105 -1 44 -3 112 -4 150 l-3 70 -7 -55 -7 -55 -2 50 c-1 45
-3 48 -15 32 -13 -17 -15 -16 -20 10 -3 15 -8 196 -11 402 -3 236 -8 378 -15
385 -9 9 -14 -5 -13 -41 1 -7 -3 -10 -9 -7 -5 3 -6 14 -3 23 3 10 1 29 -4 42
-8 19 -10 10 -11 -46 -2 -110 -10 -63 -19 116 -7 152 -8 156 -10 58 -1 -91 -4
-108 -21 -124 -14 -13 -18 -25 -14 -49 4 -22 3 -27 -4 -17 -8 11 -11 8 -14
-15 -4 -27 -5 -26 -13 14 -4 23 -11 42 -16 42 -5 0 -9 5 -9 11 0 5 6 7 12 3
10 -6 10 -4 0 8 -9 12 -12 72 -12 237 l1 220 1752 3 c1486 3 1757 5 1782 17
17 8 32 15 35 16 24 8 68 27 82 35 10 6 22 10 27 10 13 0 21 -53 10 -66 -24
-30 20 -60 68 -48 20 6 23 3 23 -26 0 -20 4 -29 11 -25 6 4 17 -2 25 -14 8
-12 21 -21 29 -21 7 0 20 -7 29 -15 9 -9 17 -11 21 -5 3 5 16 10 28 11 21 0
21 1 3 8 -19 7 -19 8 1 13 12 3 22 17 26 35 6 29 12 33 67 48 30 8 50 18 50
26 0 6 4 8 9 4 9 -5 18 4 68 57 21 22 43 39 43 32 0 -3 7 -1 15 6 9 7 13 20
10 29 -4 14 2 17 30 17 19 0 35 -3 35 -8 0 -4 7 -5 15 -2 8 4 12 11 8 17 -4 6
0 8 10 4 11 -4 14 -2 11 7 -3 8 -1 17 5 21 7 4 11 -4 11 -20 0 -22 3 -24 18
-16 15 8 19 3 28 -37 l12 -47 1 57 c1 64 9 91 23 82 6 -4 5 -10 -3 -15 -10 -6
-8 -9 8 -9 12 0 25 5 28 10 4 6 11 7 17 4 6 -4 8 -2 5 3 -6 9 14 24 35 27 3 1
9 4 13 8 10 10 -17 4 -42 -10 -32 -18 -35 -15 -10 11 14 14 30 21 45 19 23 -5
31 13 10 21 -7 3 -3 6 9 6 18 1 23 9 29 47 5 34 3 48 -7 55 -18 11 -13 13 -98
-27z m-4786 -156 c15 -7 25 -19 24 -32 0 -21 -1 -21 -9 -1 -9 22 -16 11 -22
-32 -3 -22 -5 -21 -65 18 -35 23 -63 46 -63 50 0 13 105 11 135 -3z m-158 -14
c-3 -3 -12 -4 -19 -1 -8 3 -5 6 6 6 11 1 17 -2 13 -5z m4688 -64 c3 -5 2 -10
-4 -10 -5 0 -13 5 -16 10 -3 6 -2 10 4 10 5 0 13 -4 16 -10z m-5142 -77 c-7
-2 -21 -2 -30 0 -10 3 -4 5 12 5 17 0 24 -2 18 -5z m-206 -335 c-3 -7 -5 -2
-5 12 0 14 2 19 5 13 2 -7 2 -19 0 -25z m-230 -50 c-3 -8 -6 -5 -6 6 -1 11 2
17 5 13 3 -3 4 -12 1 -19z m1450 -170 c-3 -8 -6 -5 -6 6 -1 11 2 17 5 13 3 -3
4 -12 1 -19z m3459 -112 c11 -62 0 -931 -12 -947 -7 -8 -13 -23 -15 -33 -3
-16 -9 -13 -34 20 l-30 39 -3 449 c-2 246 -1 459 2 471 6 22 15 26 73 34 7 0
15 -14 19 -33z m-4491 -21 c48 -8 93 -19 99 -25 8 -8 4 -10 -14 -6 -14 3 -47
8 -75 11 -87 11 -145 26 -139 36 3 6 14 7 24 4 9 -3 57 -12 105 -20z m-94 -65
c16 -9 19 -22 19 -94 0 -45 -2 -85 -5 -88 -3 -3 -17 -3 -30 0 -24 4 -25 6 -25
98 0 97 3 104 41 84z m4636 -22 c-3 -7 -5 -2 -5 12 0 14 2 19 5 13 2 -7 2 -19
0 -25z m-4470 -90 c-3 -7 -5 -2 -5 12 0 14 2 19 5 13 2 -7 2 -19 0 -25z m8
-49 c-10 -15 -25 -10 -19 6 4 8 10 12 15 9 5 -3 7 -10 4 -15z m-173 -91 c11
-9 18 -32 20 -70 3 -51 1 -55 -13 -42 -22 20 -29 18 -29 -11 0 -14 -4 -25 -9
-25 -4 0 -9 36 -10 80 -2 84 5 96 41 68z m745 -10 c-3 -8 -6 -5 -6 6 -1 11 2
17 5 13 3 -3 4 -12 1 -19z m-717 -143 c0 -8 -7 -15 -15 -15 -8 0 -15 7 -15 15
0 8 7 15 15 15 8 0 15 -7 15 -15z m58 3 c-6 -18 -28 -21 -28 -4 0 9 7 16 16
16 9 0 14 -5 12 -12z m4179 -50 c-3 -7 -5 -2 -5 12 0 14 2 19 5 13 2 -7 2 -19
0 -25z m-4268 -61 c6 -8 8 -17 4 -20 -3 -4 -1 -7 5 -7 7 0 12 -9 12 -20 0 -11
-4 -20 -10 -20 -5 0 -10 -18 -10 -40 0 -32 -3 -38 -16 -33 -8 3 -13 12 -10 19
3 7 1 16 -4 19 -16 10 -12 115 4 115 7 0 19 -6 25 -13z m48 -74 c-3 -10 -5 -4
-5 12 0 17 2 24 5 18 2 -7 2 -21 0 -30z m-693 -25 c-9 -59 -14 -60 -14 -5 0
26 5 47 10 47 6 0 8 -16 4 -42z m4953 -30 c-3 -8 -6 -5 -6 6 -1 11 2 17 5 13
3 -3 4 -12 1 -19z m110 0 c-3 -8 -6 -5 -6 6 -1 11 2 17 5 13 3 -3 4 -12 1 -19z
m-2387 -133 c0 -14 -3 -25 -8 -25 -11 0 -32 37 -25 44 15 15 33 4 33 -19z
m-2037 8 c-7 -2 -19 -2 -25 0 -7 3 -2 5 12 5 14 0 19 -2 13 -5z m2037 -68 c11
-13 10 -14 -4 -9 -9 3 -16 10 -16 15 0 13 6 11 20 -6z m-2793 -47 c-3 -7 -5
-2 -5 12 0 14 2 19 5 13 2 -7 2 -19 0 -25z m3059 -3 c-21 -16 -32 -13 -21 4 3
6 14 11 23 11 15 -1 15 -2 -2 -15z m-436 -95 c-37 -12 -948 -12 -930 0 9 6
197 9 485 9 259 -1 459 -5 445 -9z m2420 0 c10 -6 -402 -9 -1170 -9 -652 1
-1174 5 -1160 9 37 12 2312 12 2330 0z m-2770 -45 c28 -10 80 -15 151 -15 59
0 110 -4 113 -9 3 -4 -12 -16 -34 -26 -38 -17 -101 -17 -185 0 -11 2 -33 4
-50 5 -22 2 -24 4 -10 7 41 10 35 20 -17 28 -29 4 -68 8 -85 7 -18 0 -33 4
-33 9 0 14 103 11 150 -6z m790 0 c33 -12 92 -15 260 -15 215 0 217 0 229 -22
l11 -23 -6 23 c-5 21 -3 22 53 22 32 0 71 7 87 15 36 19 99 19 151 0 30 -10
94 -14 255 -15 198 0 217 -2 240 -20 14 -11 30 -20 35 -20 6 0 -1 9 -15 20
l-25 20 45 0 c80 0 156 12 135 21 -38 15 79 9 129 -6 34 -11 96 -15 205 -15
162 0 228 -9 242 -32 7 -10 -13 -15 -94 -20 -61 -5 -114 -4 -131 2 -16 6 -60
10 -97 10 -55 0 -69 3 -69 15 0 10 -11 15 -35 15 -19 0 -35 4 -35 8 0 4 -8 8
-17 9 -10 1 -27 2 -38 3 -33 2 -105 -12 -105 -21 0 -5 11 -9 25 -9 14 0 25 -4
25 -9 0 -8 -236 -26 -315 -25 -127 3 -326 18 -331 25 -3 5 3 9 13 10 10 0 5 5
-12 10 -65 21 -155 31 -155 17 0 -4 -9 -8 -20 -8 -22 0 -27 -16 -7 -23 6 -2 8
-8 4 -13 -13 -14 -597 -10 -627 3 -22 10 -23 12 -5 13 13 1 7 6 -19 16 -21 7
-42 11 -46 9 -5 -3 -11 -1 -14 4 -12 19 -110 -5 -102 -24 7 -20 -10 -23 -171
-30 l-148 -7 39 22 c32 18 63 23 168 29 77 4 133 12 140 19 17 17 97 15 148
-3z m-986 -30 c-5 -11 -24 -15 -79 -15 -41 0 -77 -4 -80 -10 -4 -6 -77 -10
-187 -10 -100 0 -178 3 -174 8 4 4 28 15 54 24 67 23 475 26 466 3z m3635 -16
c32 -11 42 -29 17 -29 -8 0 -33 9 -57 20 -38 17 -40 20 -18 20 14 0 40 -5 58
-11z m-2509 -143 c0 -7 -7 -19 -15 -26 -12 -10 -15 -9 -15 7 0 11 3 23 7 26
11 12 23 8 23 -7z m315 4 c11 -18 -5 -30 -25 -18 -10 7 -16 16 -14 20 7 11 32
10 39 -2z m870 -7 c39 -18 48 -38 13 -27 -30 9 -78 33 -78 39 0 10 31 4 65
-12z m1135 -315 c0 18 75 15 113 -5 30 -15 31 -15 18 0 -16 20 -5 21 27 4 25
-15 98 -12 117 3 17 14 26 1 15 -20 -16 -30 -67 -40 -196 -40 -99 0 -131 4
-168 20 -25 10 -46 24 -46 30 0 12 4 12 53 1 31 -7 39 -6 44 6 5 12 7 12 14 1
7 -10 9 -10 9 0z m-3535 -13 c77 0 155 3 173 7 29 7 32 6 23 -11 -17 -31 -88
-43 -223 -40 -97 3 -130 8 -151 22 -37 24 -34 38 6 29 17 -4 95 -7 172 -7z
m877 -3 c75 -2 157 0 182 6 42 9 45 8 36 -8 -16 -30 -67 -40 -195 -40 -130 0
-195 15 -195 46 0 12 5 14 18 8 9 -4 79 -9 154 -12z m938 3 c80 0 157 3 172 7
22 7 25 5 21 -11 -7 -29 -68 -41 -204 -41 -98 0 -131 4 -158 18 -48 24 -53 44
-9 34 18 -4 98 -7 178 -7z m905 0 c83 0 162 3 177 7 22 7 25 5 21 -10 -8 -30
-62 -42 -196 -42 -93 0 -137 4 -167 16 -47 19 -57 49 -12 37 15 -5 95 -8 177
-8z"/>
<path d="M6080 2980 c0 -5 5 -10 11 -10 5 0 7 5 4 10 -3 6 -8 10 -11 10 -2 0
-4 -4 -4 -10z"/>
<path d="M5200 2709 c-19 -11 -28 -18 -20 -16 26 7 50 -12 50 -40 0 -38 6 -25
14 30 4 26 4 47 -1 47 -4 -1 -24 -10 -43 -21z"/>
<path d="M5010 2654 c6 -14 10 -42 10 -61 0 -52 6 -37 13 30 5 51 4 57 -13 57
-17 0 -18 -4 -10 -26z"/>
<path d="M981 2564 c0 -11 3 -14 6 -6 3 7 2 16 -1 19 -3 4 -6 -2 -5 -13z"/>
<path d="M5975 2430 c-93 -22 -205 -47 -248 -57 l-78 -18 1 -457 c0 -298 -3
-458 -10 -458 -6 0 -6 -9 -1 -23 14 -35 2 -75 -23 -80 -20 -4 -20 -4 2 -6 19
-1 22 -6 22 -46 0 -35 4 -45 17 -45 15 0 16 41 10 539 -5 415 -4 542 6 554 7
8 32 20 57 26 25 6 140 33 255 60 116 27 199 49 185 49 -14 0 -101 -17 -195
-38z"/>
<path d="M5578 2333 c7 -3 16 -2 19 1 4 3 -2 6 -13 5 -11 0 -14 -3 -6 -6z"/>
<path d="M5538 2323 c7 -3 16 -2 19 1 4 3 -2 6 -13 5 -11 0 -14 -3 -6 -6z"/>
<path d="M2 2250 c0 -14 2 -19 5 -12 2 6 2 18 0 25 -3 6 -5 1 -5 -13z"/>
<path d="M4112 2215 c0 -16 2 -22 5 -12 2 9 2 23 0 30 -3 6 -5 -1 -5 -18z"/>
<path d="M2 2175 c0 -16 2 -22 5 -12 2 9 2 23 0 30 -3 6 -5 -1 -5 -18z"/>
<path d="M1051 2074 c0 -11 3 -14 6 -6 3 7 2 16 -1 19 -3 4 -6 -2 -5 -13z"/>
<path d="M5102 1725 c0 -16 2 -22 5 -12 2 9 2 23 0 30 -3 6 -5 -1 -5 -18z"/>
<path d="M5132 1700 c0 -19 2 -27 5 -17 2 9 2 25 0 35 -3 9 -5 1 -5 -18z"/>
<path d="M2080 1568 c0 -15 5 -18 23 -13 37 12 40 22 8 27 -25 4 -31 1 -31
-14z"/>
<path d="M2230 1571 c0 -5 25 -11 55 -13 54 -3 71 4 39 16 -24 9 -94 7 -94 -3z"/>
<path d="M2148 1535 c-3 -4 -18 -7 -34 -9 -15 -2 -30 -8 -32 -14 -2 -7 11 -9
37 -7 26 2 41 0 41 -8 0 -8 4 -7 12 1 10 10 9 15 -3 27 -8 9 -18 13 -21 10z"/>
<path d="M2235 1530 c-3 -6 1 -7 9 -4 18 7 21 14 7 14 -6 0 -13 -4 -16 -10z"/>
<path d="M2237 1512 c-20 -4 -23 -32 -4 -32 8 0 7 -4 -3 -10 -22 -14 -3 -12
20 3 16 9 22 9 28 0 5 -8 13 -9 22 -3 8 6 26 10 40 11 14 0 19 3 12 6 -6 2
-10 9 -6 14 3 5 -2 9 -11 9 -9 0 -13 -4 -10 -10 4 -6 -6 -10 -22 -9 -15 0 -22
3 -15 6 6 2 12 8 12 13 0 8 -28 8 -63 2z"/>
<path d="M6003 1488 c3 -16 -1 -35 -7 -43 -9 -13 -16 -13 -44 -3 -22 9 -38 9
-48 3 -25 -16 -18 -30 13 -27 30 3 73 -34 73 -63 0 -8 5 -15 10 -15 6 0 10 7
10 15 0 8 7 15 15 15 21 0 18 55 -6 105 -16 34 -19 36 -16 13z"/>
<path d="M4679 1412 c-3 -20 -2 -29 4 -23 5 5 7 19 5 32 -3 20 -5 19 -9 -9z"/>
<path d="M3191 1414 c0 -11 3 -14 6 -6 3 7 2 16 -1 19 -3 4 -6 -2 -5 -13z"/>
<path d="M4230 1410 c-12 -8 -10 -10 8 -10 13 0 20 4 17 10 -7 12 -6 12 -25 0z"/>
<path d="M4425 1410 c-8 -13 25 -13 45 0 12 8 9 10 -12 10 -15 0 -30 -4 -33
-10z"/>
<path d="M4651 1404 c0 -11 3 -14 6 -6 3 7 2 16 -1 19 -3 4 -6 -2 -5 -13z"/>
<path d="M4577 1399 c8 -8 16 -8 30 0 16 9 14 10 -11 11 -22 0 -27 -3 -19 -11z"/>
<path d="M4705 1380 c3 -5 10 -10 16 -10 5 0 9 5 9 10 0 6 -7 10 -16 10 -8 0
-12 -4 -9 -10z"/>
<path d="M5526 1321 c-9 -14 23 -22 43 -11 10 5 22 6 26 2 5 -4 5 -1 1 6 -8
14 -62 17 -70 3z"/>
<path d="M5786 1281 c9 -9 55 -15 84 -11 18 3 -35 17 -69 19 -16 1 -21 -3 -15
-8z"/>
<path d="M5905 1260 c-11 -5 -15 -9 -8 -9 6 -1 13 -11 15 -23 2 -14 11 -24 23
-25 11 -2 14 0 7 3 -10 5 -8 10 7 20 40 28 5 55 -44 34z"/>
<path d="M5990 1258 c0 -14 15 -16 27 -3 10 11 9 13 -7 12 -11 -1 -20 -5 -20
-9z"/>
<path d="M6123 1225 c0 -21 4 -25 29 -25 16 0 27 4 23 10 -3 5 -12 7 -20 3 -8
-3 -15 0 -15 6 0 6 6 11 13 11 8 0 7 4 -3 10 -23 15 -27 12 -27 -15z"/>
<path d="M5826 1221 c-3 -5 6 -8 20 -8 19 0 22 2 13 8 -18 11 -26 11 -33 0z"/>
<path d="M6099 1218 c-1 -5 -2 -21 -3 -38 -1 -31 5 -34 39 -20 18 8 18 9 -5
10 -24 2 -23 3 5 10 23 6 25 8 8 9 -12 0 -27 9 -32 19 -6 9 -11 14 -12 10z"/>
<path d="M5974 1133 c-17 -17 -17 -18 0 -21 10 -2 23 3 29 11 7 8 19 17 27 20
8 3 3 6 -12 6 -15 1 -34 -7 -44 -16z"/>
<path d="M6175 1050 c3 -5 10 -10 16 -10 5 0 9 5 9 10 0 6 -7 10 -16 10 -8 0
-12 -4 -9 -10z"/>
<path d="M6152 998 c5 -15 37 -18 41 -3 1 6 -9 12 -22 13 -16 3 -22 -1 -19
-10z"/>
<path d="M5960 978 c0 -10 2 -18 4 -18 2 0 12 -3 22 -7 11 -4 15 -2 13 6 -3 7
-8 12 -13 11 -5 -1 -13 4 -17 12 -7 10 -9 9 -9 -4z"/>
</g>
</svg>
